# xmcd
#
# Track frame offsets:
#	182
#	13817
#	30540
#	47275
#	66857
#	81142
#	95595
#	113552
#	131892
#	147125
#
# Disc length: 2198 seconds
#
# Revision: 5
# Processed by: cddbd v1.4PL0 Copyright (c) Steve Scherf et al.
# Submitted via: EasyCDDAExtractor 5.0.7
#
DISCID=7e08940a
DTITLE=Champion Jack Dupree - Blues From The Gutter
DYEAR=1992
DGENRE=Blues
TTITLE0=Strollin'
TTITLE1=T.B. Blues
TTITLE2=Can't Kick The Habit
TTITLE3=Evil Woman
TTITLE4=Nasty Boogie
TTITLE5=Junker's Blues
TTITLE6=Bad Blood
TTITLE7=Goin' Down Slow
TTITLE8=Frankie and Johnny
TTITLE9=Stack-O-Lee
EXTD=
EXTT0=
EXTT1=
EXTT2=
EXTT3=
EXTT4=
EXTT5=
EXTT6=
EXTT7=
EXTT8=
EXTT9=
PLAYORDER=
